<svg xmlns="http://www.w3.org/2000/svg" xmlns:xlink="http://www.w3.org/1999/xlink" width="907" zoomAndPan="magnify" viewBox="0 0 680.25 488.999988" height="652" preserveAspectRatio="xMidYMid meet" version="1.0"><path fill="#ffffff" d="M 289.671875 95.996094 C 299.890625 97.304688 298.894531 101.863281 301.746094 105.667969 C 309.523438 104.542969 312.460938 102.5 321.894531 103.832031 C 333.175781 105.425781 336.351562 109.644531 339.441406 109.765625 C 340.613281 109.8125 348.253906 105.171875 356.992188 103.851562 C 368.308594 102.136719 372.761719 105.523438 377.808594 105.457031 C 382.316406 95.75 382.902344 99.878906 388.449219 95.171875 C 380.351562 86.558594 379.398438 89.070312 366.730469 89.089844 L 297.566406 89.316406 C 296.800781 89.554688 290.328125 95.195312 289.671875 95.996094 " fill-opacity="1" fill-rule="evenodd"/><path fill="#d4af37" d="M 341.410156 304.664062 L 341.0625 313.75 C 353.632812 322.8125 399.402344 323.378906 413.480469 315.230469 C 413.972656 310.925781 414.683594 299.304688 413.285156 296.097656 C 383.09375 306.078125 382.945312 312.777344 341.410156 304.664062 " fill-opacity="1" fill-rule="evenodd"/><path fill="#ffffff" d="M 409.300781 90.003906 C 401.921875 87.167969 398.089844 86.660156 396.714844 78.652344 C 395.371094 70.8125 398.265625 62.046875 387.746094 63.089844 C 389.328125 66.726562 389.570312 67.476562 386.074219 72.46875 C 373.933594 89.640625 403.089844 93.878906 409.300781 90.003906 " fill-opacity="1" fill-rule="evenodd"/><path fill="#d4af37" d="M 295.910156 268.96875 C 302.761719 274.347656 328.824219 279.121094 338.554688 275.355469 C 336.074219 273.148438 323.738281 267.613281 319.871094 265.28125 C 316.542969 263.269531 313.320312 266.25 309.210938 267.246094 C 304.789062 268.324219 300.707031 268.519531 295.910156 268.96875 " fill-opacity="1" fill-rule="evenodd"/><path fill="#d4af37" d="M 340.882812 275.398438 C 351.34375 278.246094 377.421875 274.734375 383.265625 268.816406 C 379.175781 268.679688 375.554688 268.363281 371.59375 267.519531 C 354.976562 263.964844 369.65625 260.753906 351.785156 270.042969 C 348.304688 271.851562 344.71875 273.125 340.882812 275.398438 " fill-opacity="1" fill-rule="evenodd"/><path fill="#d4af37" d="M 393.832031 294.925781 L 394.191406 275.835938 C 371.558594 285.050781 364.886719 286.613281 341.0625 286.285156 L 341.109375 295.683594 C 355.515625 300.25 379.273438 301.4375 393.832031 294.925781 " fill-opacity="1" fill-rule="evenodd"/><path fill="#d4af37" d="M 426.039062 128.152344 C 423.691406 125.0625 422.339844 122.359375 420.570312 120.246094 C 412.167969 141.492188 432.519531 148.3125 445.007812 169.738281 C 457.945312 150.792969 435.207031 140.214844 426.039062 128.152344 " fill-opacity="1" fill-rule="evenodd"/><path fill="#d4af37" d="M 425.800781 208.882812 C 428.207031 212.519531 429.210938 215.644531 429.925781 219.804688 L 431.878906 215.457031 C 440.292969 200.675781 421.765625 191.589844 415.367188 180.226562 C 413.921875 177.746094 414.035156 177.519531 412.003906 175.808594 C 410.996094 181.226562 408.1875 186.65625 410.949219 192.734375 C 413.796875 199.003906 421.703125 202.6875 425.800781 208.882812 " fill-opacity="1" fill-rule="evenodd"/><path fill="#d4af37" d="M 419.285156 152.667969 C 418.285156 151.101562 418.367188 150.703125 416.945312 149.359375 C 414.863281 152.710938 414.433594 159.242188 415.332031 163.277344 C 416.4375 168.230469 419.429688 170.410156 422.523438 172.949219 C 429.019531 177.808594 435.984375 182.410156 437.824219 192.425781 C 438.957031 191.339844 438.710938 191.992188 439.574219 190.113281 C 441.542969 185.816406 442.039062 175.964844 436.5625 170.082031 C 430.839844 163.933594 424.113281 160.238281 419.285156 152.667969 " fill-opacity="1" fill-rule="evenodd"/><path fill="#d4af37" d="M 402.160156 233.273438 C 398.460938 229.445312 397.140625 227.996094 395.382812 223.078125 C 392.59375 224.882812 391.105469 230.417969 392.332031 234.347656 C 393.523438 238.175781 397.117188 241.046875 398.3125 244.574219 C 401.324219 253.457031 389.996094 260.023438 385.960938 264.25 C 395.652344 263.523438 414.769531 252.902344 409.035156 241.242188 C 406.441406 237.996094 405.167969 236.386719 402.160156 233.273438 " fill-opacity="1" fill-rule="evenodd"/><path fill="#d4af37" d="M 369.117188 260.414062 C 373.273438 260.191406 378.761719 254.507812 384.914062 253.558594 L 384.453125 259.121094 C 387.679688 257.621094 393.972656 248.199219 387.40625 244.890625 C 380.941406 242.035156 370.148438 255.722656 369.117188 260.414062 " fill-opacity="1" fill-rule="evenodd"/><path fill="#d4af37" d="M 406.605469 200.1875 C 398.328125 210.285156 406.976562 217.933594 413.308594 225.085938 C 418.148438 230.550781 416.375 233.203125 419.089844 237.640625 C 421.996094 230.636719 424.675781 224.535156 419.023438 217.863281 C 412.6875 210.382812 411.519531 208.191406 406.605469 200.1875 " fill-opacity="1" fill-rule="evenodd"/><path fill="#d4af37" d="M 253.152344 128.152344 C 255.5 125.0625 256.851562 122.359375 258.621094 120.246094 C 267.023438 141.492188 246.671875 148.3125 234.183594 169.738281 C 221.246094 150.792969 243.984375 140.214844 253.152344 128.152344 " fill-opacity="1" fill-rule="evenodd"/><path fill="#d4af37" d="M 253.390625 208.882812 C 250.984375 212.519531 249.980469 215.644531 249.265625 219.804688 L 247.3125 215.457031 C 238.898438 200.675781 257.425781 191.589844 263.824219 180.226562 C 265.269531 177.746094 265.15625 177.519531 267.1875 175.808594 C 268.195312 181.226562 271.003906 186.65625 268.242188 192.734375 C 265.394531 199.003906 257.488281 202.6875 253.390625 208.882812 " fill-opacity="1" fill-rule="evenodd"/><path fill="#d4af37" d="M 259.90625 152.667969 C 260.90625 151.101562 260.824219 150.703125 262.246094 149.359375 C 264.328125 152.710938 264.757812 159.242188 263.859375 163.277344 C 262.753906 168.230469 259.761719 170.410156 256.667969 172.949219 C 250.171875 177.808594 243.207031 182.410156 241.367188 192.425781 C 240.234375 191.339844 240.480469 191.992188 239.621094 190.113281 C 237.648438 185.816406 237.152344 175.964844 242.628906 170.082031 C 248.351562 163.933594 255.078125 160.238281 259.90625 152.667969 " fill-opacity="1" fill-rule="evenodd"/><path fill="#d4af37" d="M 277.03125 233.273438 C 280.730469 229.445312 282.050781 227.996094 283.808594 223.078125 C 286.597656 224.882812 288.085938 230.417969 286.859375 234.347656 C 285.667969 238.175781 282.074219 241.046875 280.878906 244.574219 C 277.867188 253.457031 289.195312 260.023438 293.230469 264.25 C 283.539062 263.523438 264.421875 252.902344 270.15625 241.242188 C 272.75 237.996094 274.023438 236.386719 277.03125 233.273438 " fill-opacity="1" fill-rule="evenodd"/><path fill="#d4af37" d="M 310.074219 260.414062 C 305.917969 260.191406 300.429688 254.507812 294.277344 253.558594 L 294.738281 259.121094 C 291.511719 257.621094 285.21875 248.199219 291.785156 244.890625 C 298.25 242.035156 309.042969 255.722656 310.074219 260.414062 " fill-opacity="1" fill-rule="evenodd"/><path fill="#d4af37" d="M 272.585938 200.1875 C 280.863281 210.285156 272.214844 217.933594 265.882812 225.085938 C 261.042969 230.550781 262.816406 233.203125 260.101562 237.640625 C 257.195312 230.636719 254.515625 224.535156 260.167969 217.863281 C 266.503906 210.382812 267.671875 208.191406 272.585938 200.1875 " fill-opacity="1" fill-rule="evenodd"/><path fill="#ffffff" d="M 384.675781 113.808594 C 393.265625 105.320312 389.238281 121.566406 405.839844 134.042969 C 405.367188 128.992188 402.34375 126.6875 403.960938 118.894531 C 405.957031 109.253906 420.546875 98.765625 432.683594 118.128906 C 438.480469 127.382812 445.019531 138.433594 457.132812 128.570312 C 435.136719 119.488281 458.246094 102.292969 431.175781 92.972656 C 424.136719 90.550781 416.414062 91.164062 410.253906 94.117188 C 401.625 98.246094 401.253906 102.878906 397.96875 106.765625 C 396.457031 104.527344 396.839844 103.019531 394.316406 101.085938 C 387.921875 96.191406 377.710938 104.0625 384.675781 113.808594 " fill-opacity="1" fill-rule="evenodd"/><path fill="#ffffff" d="M 294.761719 113.808594 C 286.171875 105.320312 290.203125 121.566406 273.601562 134.042969 C 274.070312 128.992188 277.09375 126.6875 275.480469 118.894531 C 273.480469 109.253906 258.894531 98.765625 246.757812 118.128906 C 240.960938 127.382812 234.421875 138.433594 222.304688 128.570312 C 244.300781 119.488281 221.191406 102.292969 248.265625 92.972656 C 255.300781 90.550781 263.027344 91.164062 269.1875 94.117188 C 277.8125 98.246094 278.1875 102.878906 281.46875 106.765625 C 282.980469 104.527344 282.597656 103.019531 285.125 101.085938 C 291.515625 96.191406 301.726562 104.0625 294.761719 113.808594 " fill-opacity="1" fill-rule="evenodd"/><path fill="#ffffff" d="M 270.8125 90.003906 C 278.191406 87.167969 282.023438 86.660156 283.398438 78.652344 C 284.742188 70.8125 281.847656 62.046875 292.367188 63.089844 C 290.789062 66.726562 290.542969 67.476562 294.039062 72.46875 C 306.179688 89.640625 277.023438 93.878906 270.8125 90.003906 " fill-opacity="1" fill-rule="evenodd"/><path fill="#d4af37" d="M 285.707031 294.925781 L 285.347656 275.835938 C 307.976562 285.050781 314.652344 286.613281 338.472656 286.285156 L 338.425781 295.683594 C 324.019531 300.25 300.261719 301.4375 285.707031 294.925781 " fill-opacity="1" fill-rule="evenodd"/><path fill="#d4af37" d="M 338.125 304.664062 L 338.472656 313.75 C 325.90625 322.8125 280.132812 323.378906 266.054688 315.230469 C 265.5625 310.925781 264.851562 299.304688 266.253906 296.097656 C 296.441406 306.078125 296.589844 312.777344 338.125 304.664062 " fill-opacity="1" fill-rule="evenodd"/><path fill="#ffffff" d="M 118.355469 329.285156 L 561.140625 329.285156 L 561.140625 324.667969 L 118.355469 324.667969 Z M 118.355469 329.285156 " fill-opacity="1" fill-rule="evenodd"/><path fill="#ffffff" d="M 181.878906 320.917969 C 182.921875 308.683594 203.957031 309.042969 213.296875 309.160156 C 220.761719 309.257812 228 309.636719 235.289062 310.453125 C 241.34375 311.132812 250.363281 313.125 256.285156 313.222656 C 253.414062 309.699219 243.710938 305.953125 239.777344 303.472656 C 235.414062 300.722656 226.082031 294.542969 228.546875 289.191406 C 231.511719 286.304688 236.007812 289.207031 239.328125 289.769531 C 235.480469 275.933594 211.695312 270.109375 210.902344 293.101562 C 181.144531 293.917969 145.761719 289.925781 126.675781 322.011719 C 134.980469 319.082031 149.191406 304.796875 169.65625 304.746094 C 168.1875 316.1875 167.75 337.621094 186.992188 332.058594 C 180.816406 327.046875 181.875 320.914062 181.875 320.914062 Z M 181.878906 320.917969 " fill-opacity="1" fill-rule="evenodd"/><path fill="#ffffff" d="M 497.617188 320.917969 C 496.574219 308.683594 475.542969 309.042969 466.203125 309.160156 C 458.738281 309.257812 451.496094 309.636719 444.207031 310.453125 C 438.15625 311.132812 429.136719 313.125 423.214844 313.222656 C 426.085938 309.699219 435.785156 305.953125 439.722656 303.472656 C 444.085938 300.722656 453.417969 294.542969 450.953125 289.191406 C 447.984375 286.304688 443.492188 289.207031 440.167969 289.769531 C 444.019531 275.933594 467.800781 270.109375 468.59375 293.101562 C 498.355469 293.917969 533.734375 289.925781 552.820312 322.011719 C 544.519531 319.082031 530.304688 304.796875 509.839844 304.746094 C 511.308594 316.1875 511.746094 337.621094 492.507812 332.058594 C 498.683594 327.046875 497.621094 320.914062 497.621094 320.914062 Z M 497.617188 320.917969 " fill-opacity="1" fill-rule="evenodd"/><path fill="#ffffff" d="M 187.753906 411.925781 L 491.742188 411.925781 L 491.742188 407.3125 L 187.753906 407.3125 Z M 187.753906 411.925781 " fill-opacity="1" fill-rule="evenodd"/><path fill="#d4af37" d="M 346.023438 29.355469 C 346.023438 29.355469 372.417969 44.355469 359.582031 71.757812 L 316.890625 71.757812 C 316.890625 71.757812 304.484375 46.808594 330.589844 29.789062 C 330.589844 29.789062 316.601562 26.902344 310.832031 43.199219 C 310.832031 43.199219 302.324219 38.222656 298.429688 44.859375 C 298.429688 44.859375 305.785156 43.417969 306.214844 47.527344 C 306.648438 51.636719 305.421875 51.710938 304.125 51.710938 C 302.828125 51.710938 302.25 47.382812 302.25 47.382812 C 302.25 47.382812 292.15625 49.402344 298.5 62.382812 C 298.5 62.382812 305.28125 68.226562 305.28125 73.632812 L 371.84375 73.632812 C 371.84375 73.632812 375.304688 63.683594 379.777344 60.652344 C 384.246094 57.625 380.066406 46.808594 376.460938 47.238281 C 376.460938 47.238281 374.007812 45.867188 373.289062 51.492188 C 372.566406 57.121094 370.761719 48.320312 370.761719 48.320312 C 370.761719 48.320312 370.328125 42.695312 378.40625 45.003906 C 378.40625 45.003906 374.367188 37.429688 366.652344 42.695312 C 366.652344 42.695312 360.089844 27.121094 346.023438 29.355469 " fill-opacity="1" fill-rule="evenodd"/><path fill="#d4af37" d="M 345.808594 38.660156 C 345.808594 38.660156 356.625 50.339844 355.328125 68.515625 C 355.328125 68.515625 366.433594 50.484375 345.808594 38.660156 " fill-opacity="1" fill-rule="evenodd"/><path fill="#d4af37" d="M 330.9375 38.660156 C 330.9375 38.660156 320.121094 50.339844 321.417969 68.515625 C 321.417969 68.515625 310.3125 50.484375 330.9375 38.660156 " fill-opacity="1" fill-rule="evenodd"/><path fill="#d4af37" d="M 344.945312 43.273438 C 346.65625 43.273438 348.046875 44.664062 348.046875 46.375 C 348.046875 48.085938 346.65625 49.476562 344.945312 49.476562 C 343.234375 49.476562 341.84375 48.085938 341.84375 46.375 C 341.84375 44.664062 343.234375 43.273438 344.945312 43.273438 " fill-opacity="1" fill-rule="evenodd"/><path fill="#d4af37" d="M 348.765625 49.980469 C 350.082031 49.980469 351.148438 51.046875 351.148438 52.359375 C 351.148438 53.675781 350.082031 54.742188 348.765625 54.742188 C 347.453125 54.742188 346.386719 53.675781 346.386719 52.359375 C 346.386719 51.046875 347.453125 49.980469 348.765625 49.980469 " fill-opacity="1" fill-rule="evenodd"/><path fill="#d4af37" d="M 351.074219 56.902344 C 352.109375 56.902344 352.949219 57.742188 352.949219 58.777344 C 352.949219 59.816406 352.109375 60.65625 351.074219 60.65625 C 350.039062 60.65625 349.199219 59.816406 349.199219 58.777344 C 349.199219 57.742188 350.039062 56.902344 351.074219 56.902344 " fill-opacity="1" fill-rule="evenodd"/><path fill="#d4af37" d="M 350.425781 63.105469 C 351.183594 63.105469 351.796875 63.71875 351.796875 64.476562 C 351.796875 65.234375 351.183594 65.847656 350.425781 65.847656 C 349.667969 65.847656 349.054688 65.234375 349.054688 64.476562 C 349.054688 63.71875 349.667969 63.105469 350.425781 63.105469 " fill-opacity="1" fill-rule="evenodd"/><path fill="#d4af37" d="M 348.191406 67.761719 C 348.6875 67.761719 349.089844 68.164062 349.089844 68.660156 C 349.089844 69.15625 348.6875 69.558594 348.191406 69.558594 C 347.695312 69.558594 347.292969 69.15625 347.292969 68.660156 C 347.292969 68.164062 347.695312 67.761719 348.191406 67.761719 " fill-opacity="1" fill-rule="evenodd"/><path fill="#d4af37" d="M 331.886719 43.273438 C 330.175781 43.273438 328.785156 44.664062 328.785156 46.375 C 328.785156 48.085938 330.175781 49.476562 331.886719 49.476562 C 333.597656 49.476562 334.988281 48.085938 334.988281 46.375 C 334.988281 44.664062 333.597656 43.273438 331.886719 43.273438 " fill-opacity="1" fill-rule="evenodd"/><path fill="#d4af37" d="M 328.066406 49.980469 C 326.75 49.980469 325.683594 51.046875 325.683594 52.359375 C 325.683594 53.675781 326.75 54.742188 328.066406 54.742188 C 329.378906 54.742188 330.445312 53.675781 330.445312 52.359375 C 330.445312 51.046875 329.378906 49.980469 328.066406 49.980469 " fill-opacity="1" fill-rule="evenodd"/><path fill="#d4af37" d="M 325.757812 56.902344 C 324.722656 56.902344 323.882812 57.742188 323.882812 58.777344 C 323.882812 59.816406 324.722656 60.65625 325.757812 60.65625 C 326.792969 60.65625 327.632812 59.816406 327.632812 58.777344 C 327.632812 57.742188 326.792969 56.902344 325.757812 56.902344 " fill-opacity="1" fill-rule="evenodd"/><path fill="#d4af37" d="M 326.40625 63.105469 C 325.648438 63.105469 325.035156 63.71875 325.035156 64.476562 C 325.035156 65.234375 325.648438 65.847656 326.40625 65.847656 C 327.164062 65.847656 327.777344 65.234375 327.777344 64.476562 C 327.777344 63.71875 327.164062 63.105469 326.40625 63.105469 " fill-opacity="1" fill-rule="evenodd"/><path fill="#d4af37" d="M 328.640625 67.761719 C 328.144531 67.761719 327.742188 68.164062 327.742188 68.660156 C 327.742188 69.15625 328.144531 69.558594 328.640625 69.558594 C 329.136719 69.558594 329.539062 69.15625 329.539062 68.660156 C 329.539062 68.164062 329.136719 67.761719 328.640625 67.761719 " fill-opacity="1" fill-rule="evenodd"/><path fill="#d4af37" d="M 340.3125 49.808594 C 343.953125 50.90625 346.675781 55.34375 346.675781 60.652344 C 346.675781 66.785156 343.042969 71.757812 338.5625 71.757812 C 334.082031 71.757812 330.449219 66.785156 330.449219 60.652344 C 330.449219 55.34375 333.175781 50.902344 336.8125 49.808594 L 336.8125 36.957031 C 335.101562 36.253906 333.898438 34.574219 333.898438 32.609375 C 333.898438 30.648438 335.101562 28.964844 336.8125 28.265625 L 336.8125 20.195312 L 340.3125 20.195312 L 340.3125 28.242188 C 342.054688 28.925781 343.289062 30.625 343.289062 32.609375 C 343.289062 34.597656 342.054688 36.292969 340.3125 36.980469 Z M 338.59375 30.65625 C 339.671875 30.65625 340.546875 31.53125 340.546875 32.609375 C 340.546875 33.691406 339.671875 34.566406 338.59375 34.566406 C 337.511719 34.566406 336.636719 33.691406 336.636719 32.609375 C 336.636719 31.53125 337.511719 30.65625 338.59375 30.65625 Z M 338.5625 59.464844 C 340.425781 59.464844 341.933594 61.527344 341.933594 64.078125 C 341.933594 66.625 340.425781 68.691406 338.5625 68.691406 C 336.703125 68.691406 335.191406 66.625 335.191406 64.078125 C 335.191406 61.527344 336.703125 59.464844 338.5625 59.464844 " fill-opacity="1" fill-rule="evenodd"/><path fill="#d4af37" d="M 307.414062 77.785156 L 369.140625 77.785156 C 371.285156 77.785156 373.039062 79.539062 373.039062 81.679688 C 373.039062 83.820312 371.285156 85.574219 369.140625 85.574219 L 307.414062 85.574219 C 305.269531 85.574219 303.519531 83.820312 303.519531 81.679688 C 303.519531 79.539062 305.269531 77.785156 307.414062 77.785156 Z M 312.207031 79.410156 C 310.957031 79.410156 309.9375 80.425781 309.9375 81.679688 C 309.9375 82.933594 310.957031 83.949219 312.207031 83.949219 C 313.460938 83.949219 314.480469 82.933594 314.480469 81.679688 C 314.480469 80.425781 313.460938 79.410156 312.207031 79.410156 Z M 325.242188 79.410156 C 323.988281 79.410156 322.972656 80.425781 322.972656 81.679688 C 322.972656 82.933594 323.988281 83.949219 325.242188 83.949219 C 326.496094 83.949219 327.511719 82.933594 327.511719 81.679688 C 327.511719 80.425781 326.496094 79.410156 325.242188 79.410156 Z M 338.277344 79.410156 C 337.023438 79.410156 336.007812 80.425781 336.007812 81.679688 C 336.007812 82.933594 337.023438 83.949219 338.277344 83.949219 C 339.53125 83.949219 340.546875 82.933594 340.546875 81.679688 C 340.546875 80.425781 339.53125 79.410156 338.277344 79.410156 Z M 351.3125 79.410156 C 350.058594 79.410156 349.042969 80.425781 349.042969 81.679688 C 349.042969 82.933594 350.058594 83.949219 351.3125 83.949219 C 352.566406 83.949219 353.582031 82.933594 353.582031 81.679688 C 353.582031 80.425781 352.566406 79.410156 351.3125 79.410156 Z M 364.347656 79.410156 C 363.09375 79.410156 362.074219 80.425781 362.074219 81.679688 C 362.074219 82.933594 363.09375 83.949219 364.347656 83.949219 C 365.597656 83.949219 366.617188 82.933594 366.617188 81.679688 C 366.617188 80.425781 365.597656 79.410156 364.347656 79.410156 " fill-opacity="1" fill-rule="evenodd"/><path fill="#d4af37" d="M 132.097656 395.390625 L 132.097656 384.894531 L 135.570312 385.066406 L 135.570312 356.472656 L 132.097656 356.621094 L 132.097656 346.136719 L 168.0625 346.136719 L 168.0625 361.9375 L 156.320312 361.9375 L 156.320312 356.472656 L 148.9375 356.472656 L 148.9375 365.851562 L 159.125 365.851562 L 159.125 374.714844 L 148.9375 374.714844 L 148.9375 385.066406 L 152.257812 384.894531 L 152.257812 395.390625 Z M 513.777344 395.390625 L 513.777344 380.253906 L 526.332031 380.253906 L 526.332031 385.054688 L 533.9375 385.054688 L 533.9375 375.304688 L 524.179688 375.304688 C 522.207031 375.304688 520.644531 375.15625 519.488281 374.875 C 518.34375 374.578125 517.324219 374.074219 516.4375 373.324219 C 515.035156 372.203125 514.148438 370.800781 513.765625 369.113281 C 513.433594 367.773438 513.261719 366.125 513.261719 364.179688 L 513.261719 357.851562 C 513.261719 355.257812 513.496094 353.226562 513.949219 351.738281 C 514.40625 350.257812 515.179688 349.078125 516.289062 348.191406 C 517.914062 346.851562 520.570312 346.160156 524.253906 346.136719 L 545.828125 346.136719 L 545.828125 360.609375 L 533.9375 360.609375 L 533.9375 356.472656 L 526.332031 356.472656 L 526.332031 365.484375 L 536.003906 365.484375 C 543.539062 365.289062 547.304688 368.5625 547.304688 375.304688 L 547.304688 385.054688 C 547.402344 392.167969 543.5625 395.613281 535.785156 395.390625 Z M 451.441406 356.472656 L 447.972656 356.621094 L 447.972656 346.136719 L 474.371094 346.136719 C 478.421875 346.183594 481.425781 347.34375 483.34375 349.59375 C 484.316406 350.75 484.933594 352.09375 485.203125 353.632812 C 485.4375 354.910156 485.558594 356.414062 485.558594 358.171875 L 485.558594 383.355469 C 485.558594 385.570312 485.398438 387.304688 485.066406 388.585938 C 484.746094 389.851562 484.167969 390.972656 483.34375 391.933594 C 481.425781 394.183594 478.421875 395.34375 474.371094 395.390625 L 447.972656 395.390625 L 447.972656 384.90625 L 451.441406 385.054688 Z M 472.195312 385.054688 L 472.195312 356.472656 L 464.808594 356.472656 L 464.808594 385.054688 Z M 375.914062 395.390625 L 375.914062 384.894531 L 379.382812 385.039062 L 379.382812 356.488281 L 375.914062 356.632812 L 375.914062 346.136719 L 391.753906 346.136719 L 403.828125 370.382812 L 403.828125 346.136719 L 419.628906 346.136719 L 419.628906 356.632812 L 416.160156 356.488281 L 416.160156 385.039062 L 419.628906 384.894531 L 419.628906 395.390625 L 403.828125 395.390625 L 391.863281 371.316406 L 391.863281 395.390625 Z M 312.113281 395.390625 L 312.113281 384.90625 L 315.585938 385.054688 L 315.585938 356.472656 L 312.113281 356.621094 L 312.113281 346.136719 L 347.558594 346.136719 L 347.558594 361.9375 L 336.335938 361.9375 L 336.335938 356.472656 L 328.949219 356.472656 L 328.949219 365.851562 L 339.140625 365.851562 L 339.140625 374.714844 L 328.949219 374.714844 L 328.949219 385.054688 L 336.335938 385.054688 L 336.335938 378.777344 L 348.078125 378.777344 L 348.078125 395.390625 Z M 263.996094 395.390625 L 263.996094 384.894531 L 267.464844 385.039062 L 267.464844 356.488281 L 263.996094 356.632812 L 263.996094 346.136719 L 283.785156 346.136719 L 283.785156 356.632812 L 280.832031 356.488281 L 280.832031 385.039062 L 283.785156 384.894531 L 283.785156 395.390625 Z M 195.394531 395.390625 L 195.394531 384.90625 L 198.863281 385.039062 L 198.863281 356.472656 L 195.394531 356.621094 L 195.394531 346.136719 L 222.1875 346.136719 C 229.71875 346.136719 233.402344 349.582031 233.203125 356.472656 L 233.203125 361.421875 C 233.203125 364.242188 232.515625 366.40625 231.136719 367.933594 C 230.152344 368.941406 228.636719 369.851562 226.605469 370.679688 C 228.808594 371.257812 230.519531 372.339844 231.75 373.925781 C 232.453125 374.886719 232.910156 376.007812 233.09375 377.285156 C 233.167969 377.816406 233.203125 379.097656 233.203125 381.113281 L 233.203125 385.039062 L 236.601562 384.90625 L 236.601562 395.390625 L 225.855469 395.390625 C 223.503906 395.367188 221.941406 395.011719 221.140625 394.308594 C 220.464844 393.753906 220.070312 392.96875 219.949219 391.933594 C 219.875 391.378906 219.835938 390.542969 219.835938 389.445312 L 219.835938 375.453125 L 212.230469 375.453125 L 212.230469 395.390625 Z M 212.230469 366.296875 L 219.835938 366.296875 L 219.835938 356.472656 L 212.230469 356.472656 Z M 212.230469 366.296875 " fill-opacity="1" fill-rule="evenodd"/><path fill="#121212" d="M 339.0625 114.234375 C 373.40625 114.234375 401.25 142.078125 401.25 176.421875 C 401.25 210.769531 373.40625 238.613281 339.0625 238.613281 C 304.714844 238.613281 276.871094 210.769531 276.871094 176.421875 C 276.871094 142.078125 304.714844 114.234375 339.0625 114.234375 " fill-opacity="1" fill-rule="evenodd"/><path fill="#ffffff" d="M 339.0625 113.238281 C 356.507812 113.238281 372.304688 120.3125 383.738281 131.746094 C 395.171875 143.179688 402.246094 158.976562 402.246094 176.421875 C 402.246094 193.871094 395.171875 209.667969 383.738281 221.101562 C 372.304688 232.535156 356.507812 239.609375 339.0625 239.609375 C 321.613281 239.609375 305.816406 232.535156 294.382812 221.101562 C 282.949219 209.667969 275.875 193.871094 275.875 176.421875 C 275.875 158.976562 282.949219 143.179688 294.382812 131.746094 C 305.816406 120.3125 321.613281 113.238281 339.0625 113.238281 Z M 382.328125 133.15625 C 371.257812 122.082031 355.957031 115.234375 339.0625 115.234375 C 322.164062 115.234375 306.867188 122.082031 295.792969 133.15625 C 284.71875 144.226562 277.871094 159.527344 277.871094 176.421875 C 277.871094 193.320312 284.71875 208.617188 295.792969 219.691406 C 306.867188 230.765625 322.164062 237.613281 339.0625 237.613281 C 355.957031 237.613281 371.257812 230.765625 382.328125 219.691406 C 393.402344 208.617188 400.25 193.320312 400.25 176.421875 C 400.25 159.527344 393.402344 144.226562 382.328125 133.15625 " fill-opacity="1" fill-rule="nonzero"/><path fill="#121212" d="M 339.0625 123.683594 C 368.1875 123.683594 391.800781 147.296875 391.800781 176.421875 C 391.800781 205.550781 368.1875 229.164062 339.0625 229.164062 C 309.933594 229.164062 286.320312 205.550781 286.320312 176.421875 C 286.320312 147.296875 309.933594 123.683594 339.0625 123.683594 " fill-opacity="1" fill-rule="evenodd"/><path fill="#d4af37" d="M 339.0625 121.6875 C 354.175781 121.6875 367.859375 127.8125 377.765625 137.71875 C 387.671875 147.625 393.796875 161.308594 393.796875 176.421875 C 393.796875 191.539062 387.671875 205.222656 377.765625 215.128906 C 367.859375 225.03125 354.175781 231.160156 339.0625 231.160156 C 323.945312 231.160156 310.261719 225.03125 300.355469 215.128906 C 290.453125 205.222656 284.324219 191.539062 284.324219 176.421875 C 284.324219 161.308594 290.453125 147.625 300.355469 137.71875 C 310.261719 127.8125 323.945312 121.6875 339.0625 121.6875 Z M 374.945312 140.539062 C 365.761719 131.355469 353.074219 125.675781 339.0625 125.675781 C 325.046875 125.675781 312.359375 131.355469 303.175781 140.539062 C 293.996094 149.722656 288.3125 162.410156 288.3125 176.421875 C 288.3125 190.4375 293.996094 203.125 303.175781 212.308594 C 312.359375 221.488281 325.046875 227.171875 339.0625 227.171875 C 353.074219 227.171875 365.761719 221.488281 374.945312 212.308594 C 384.128906 203.125 389.808594 190.4375 389.808594 176.421875 C 389.808594 162.410156 384.128906 149.722656 374.945312 140.539062 " fill-opacity="1" fill-rule="nonzero"/><path fill="#ffffff" d="M 318.867188 147.648438 L 359.253906 147.648438 L 359.253906 163.949219 L 349.589844 163.949219 L 349.589844 158.464844 L 338.339844 158.464844 L 338.339844 168.273438 L 346.054688 168.273438 L 346.054688 177.503906 L 338.339844 177.503906 L 338.339844 194.382812 L 343.675781 194.382812 L 343.675781 205.199219 L 318.867188 205.199219 L 318.867188 194.382812 L 323.769531 194.382812 L 323.769531 158.464844 L 318.867188 158.464844 Z M 318.867188 147.648438 " fill-opacity="1" fill-rule="evenodd"/><path fill="#d4af37" d="M 242.964844 439.257812 L 242.964844 452.324219 C 242.964844 454.425781 242.4375 456.121094 241.390625 457.414062 C 240.339844 458.710938 238.609375 459.355469 236.191406 459.355469 L 232.007812 459.355469 C 227.089844 459.355469 224.632812 457.011719 224.632812 452.324219 L 224.632812 446.242188 C 224.632812 441.585938 227.089844 439.257812 232.007812 439.257812 Z M 437.832031 439.257812 L 437.832031 442.277344 C 441.28125 440.261719 444.214844 439.257812 446.628906 439.257812 C 447.351562 439.257812 448.046875 439.320312 448.722656 439.449219 C 449.398438 439.582031 450.125 439.851562 450.902344 440.269531 C 451.675781 440.6875 452.347656 441.226562 452.90625 441.886719 C 453.46875 442.550781 453.933594 443.460938 454.308594 444.625 C 454.683594 445.789062 454.867188 447.136719 454.867188 448.660156 L 454.867188 452.324219 C 454.867188 457.011719 452.425781 459.355469 447.535156 459.355469 L 426.058594 459.355469 C 421.167969 459.355469 418.726562 457.011719 418.726562 452.324219 L 418.726562 434.382812 L 424.761719 432.183594 L 424.761719 451.808594 C 424.761719 452.410156 424.898438 452.8125 425.171875 453.015625 C 425.445312 453.21875 425.855469 453.316406 426.402344 453.316406 L 431.792969 453.316406 L 431.792969 439.257812 Z M 437.832031 453.316406 L 447.320312 453.316406 C 447.867188 453.316406 448.277344 453.21875 448.550781 453.015625 C 448.824219 452.8125 448.960938 452.410156 448.960938 451.808594 L 448.960938 449.261719 C 448.960938 447.652344 448.722656 446.574219 448.25 446.027344 C 447.773438 445.480469 447.035156 445.207031 446.027344 445.207031 C 444.472656 445.207031 441.742188 446.589844 437.832031 449.347656 Z M 415.664062 459.355469 L 393.148438 459.355469 C 391.679688 459.355469 390.328125 458.96875 389.09375 458.191406 C 387.914062 458.96875 386.320312 459.355469 384.304688 459.355469 L 368.519531 459.355469 C 363.632812 459.355469 361.1875 457.011719 361.1875 452.324219 L 361.1875 441.457031 L 367.226562 439.257812 L 367.226562 451.808594 C 367.226562 452.410156 367.363281 452.8125 367.636719 453.015625 C 367.910156 453.21875 368.316406 453.316406 368.863281 453.316406 L 384.003906 453.316406 C 384.550781 453.316406 384.960938 453.21875 385.234375 453.015625 C 385.507812 452.8125 385.644531 452.410156 385.644531 451.808594 L 385.644531 441.457031 L 391.679688 439.257812 L 391.679688 452.066406 C 391.738281 452.410156 391.902344 452.707031 392.175781 452.949219 C 392.449219 453.195312 392.773438 453.316406 393.148438 453.316406 L 407.296875 453.316406 C 407.035156 452.714844 406.796875 451.9375 406.582031 450.988281 C 406.367188 450.039062 406.230469 449.464844 406.171875 449.261719 C 405.914062 448.457031 405.621094 447.789062 405.289062 447.257812 C 404.957031 446.726562 404.648438 446.324219 404.363281 446.050781 C 404.074219 445.777344 403.671875 445.574219 403.152344 445.445312 C 402.636719 445.316406 402.21875 445.246094 401.902344 445.230469 C 401.585938 445.214844 401.082031 445.207031 400.394531 445.207031 C 400.191406 445.207031 400.035156 445.207031 399.917969 445.207031 L 395.996094 445.207031 L 398.109375 439.257812 L 401.6875 439.257812 C 406.085938 439.257812 409.078125 440.894531 410.660156 444.171875 C 411.0625 445.035156 411.578125 446.660156 412.210938 449.046875 C 412.46875 449.996094 412.707031 450.738281 412.921875 451.269531 C 413.140625 451.800781 413.476562 452.273438 413.9375 452.691406 C 414.398438 453.109375 414.972656 453.316406 415.664062 453.316406 Z M 377.492188 468.800781 L 373.738281 465.394531 L 377.492188 462.03125 L 381.242188 465.394531 Z M 346.089844 434.382812 L 352.128906 432.183594 L 352.128906 457.804688 L 346.089844 460.003906 Z M 336.601562 434.382812 L 342.640625 432.183594 L 342.640625 452.324219 C 342.640625 457.011719 340.195312 459.355469 335.308594 459.355469 L 331.425781 459.355469 C 329.988281 459.355469 328.609375 458.867188 327.285156 457.890625 C 325.90625 458.894531 324.324219 459.398438 322.542969 459.398438 C 320.816406 459.398438 319.261719 458.894531 317.882812 457.890625 C 316.558594 458.894531 314.980469 459.398438 313.136719 459.398438 C 311.414062 459.398438 309.859375 458.894531 308.480469 457.890625 C 307.128906 458.867188 305.648438 459.355469 304.039062 459.355469 L 300.328125 459.355469 C 296.5625 459.355469 293.167969 458.738281 290.148438 457.5 C 286.929688 458.738281 283.164062 459.355469 278.847656 459.355469 L 275.441406 459.355469 C 270.554688 459.355469 268.109375 457.011719 268.109375 452.324219 L 268.109375 434.382812 L 274.148438 432.183594 L 274.148438 451.808594 C 274.148438 452.410156 274.285156 452.8125 274.558594 453.015625 C 274.832031 453.21875 275.242188 453.316406 275.785156 453.316406 L 278.847656 453.316406 C 280.460938 453.316406 282.039062 453.203125 283.59375 452.972656 C 281.207031 450.414062 279.683594 447.4375 279.019531 444.042969 L 283.207031 439.214844 C 285.9375 438.324219 288.136719 437.875 289.804688 437.875 C 290.695312 437.875 291.480469 437.90625 292.15625 437.960938 C 292.832031 438.019531 293.65625 438.191406 294.636719 438.480469 C 295.613281 438.769531 296.417969 439.164062 297.050781 439.667969 C 297.683594 440.167969 298.238281 440.917969 298.710938 441.910156 C 299.183594 442.902344 299.421875 444.085938 299.421875 445.46875 C 299.421875 448.488281 298.472656 451.074219 296.574219 453.230469 C 297.351562 453.289062 298.605469 453.316406 300.328125 453.316406 L 304.039062 453.316406 C 304.410156 453.316406 304.742188 453.175781 305.03125 452.886719 C 305.316406 452.597656 305.460938 452.269531 305.460938 451.894531 L 305.460938 441.457031 L 311.5 439.257812 L 311.5 451.894531 C 311.5 452.84375 312.058594 453.316406 313.183594 453.316406 C 314.304688 453.316406 314.863281 452.84375 314.863281 451.894531 L 314.863281 441.457031 L 320.902344 439.257812 L 320.902344 451.894531 C 320.902344 452.84375 321.464844 453.316406 322.585938 453.316406 C 323.707031 453.316406 324.265625 452.84375 324.265625 451.894531 L 324.265625 441.457031 L 330.304688 439.257812 L 330.304688 451.894531 C 330.304688 452.269531 330.449219 452.597656 330.738281 452.886719 C 331.023438 453.175781 331.355469 453.316406 331.726562 453.316406 L 334.964844 453.316406 C 335.507812 453.316406 335.917969 453.21875 336.191406 453.015625 C 336.464844 452.8125 336.601562 452.410156 336.601562 451.808594 Z M 293.773438 445.207031 C 293.773438 444.71875 293.425781 444.324219 292.738281 444.023438 C 292.046875 443.722656 291.070312 443.570312 289.804688 443.570312 C 289.113281 443.570312 288.386719 443.640625 287.625 443.785156 C 286.863281 443.929688 286.269531 444.074219 285.835938 444.214844 L 285.234375 444.433594 C 286.382812 447.421875 287.863281 449.621094 289.675781 451.03125 C 292.40625 449.507812 293.773438 447.566406 293.773438 445.207031 Z M 247.792969 439.257812 L 253.1875 439.257812 C 254.710938 439.257812 256.066406 439.363281 257.261719 439.582031 C 258.453125 439.796875 259.445312 440.054688 260.238281 440.355469 C 261.027344 440.660156 261.695312 441.097656 262.242188 441.671875 C 262.789062 442.246094 263.207031 442.785156 263.496094 443.289062 C 263.78125 443.792969 263.996094 444.453125 264.140625 445.273438 C 264.285156 446.09375 264.371094 446.78125 264.398438 447.34375 C 264.429688 447.90625 264.441406 448.660156 264.441406 449.609375 L 264.441406 459.355469 L 245.984375 459.355469 L 245.984375 453.316406 L 258.316406 453.316406 L 258.316406 449.480469 C 258.316406 448.644531 258.28125 448.019531 258.210938 447.601562 C 258.136719 447.1875 257.953125 446.777344 257.648438 446.375 C 257.347656 445.972656 256.859375 445.691406 256.183594 445.53125 C 255.507812 445.375 254.609375 445.296875 253.488281 445.296875 L 247.792969 445.296875 Z M 231.792969 436.882812 L 227.996094 433.519531 L 231.792969 430.113281 L 234.597656 432.65625 L 237.441406 430.113281 L 241.195312 433.519531 L 237.441406 436.882812 L 234.597656 434.382812 Z M 236.925781 445.296875 L 232.308594 445.296875 C 231.765625 445.296875 231.355469 445.394531 231.082031 445.597656 C 230.808594 445.796875 230.671875 446.199219 230.671875 446.804688 L 230.671875 451.808594 C 230.671875 452.410156 230.800781 452.8125 231.058594 453.015625 C 231.316406 453.21875 231.734375 453.316406 232.308594 453.316406 L 235.242188 453.316406 C 235.816406 453.316406 236.242188 453.21875 236.515625 453.015625 C 236.789062 452.8125 236.925781 452.410156 236.925781 451.808594 Z M 236.925781 445.296875 " fill-opacity="1" fill-rule="evenodd"/></svg>